<?xml version="1.0" encoding="UTF-8"?>
<svg width="300" height="200" viewBox="0 0 300 200" fill="none" xmlns="http://www.w3.org/2000/svg">
  <!-- Light Background -->
  <rect width="300" height="200" fill="#FFFFFF"/>
  
  <!-- Sidebar -->
  <rect x="0" y="0" width="90" height="200" fill="#F3F4F6"/>
  
  <!-- Profile Section in Sidebar -->
  <circle cx="45" cy="35" r="20" fill="#3B82F6"/>
  <rect x="15" y="65" width="60" height="8" rx="1" fill="#111827"/>
  
  <!-- Contact Info in Sidebar -->
  <rect x="15" y="90" width="12" height="12" rx="2" fill="#4B5563"/>
  <rect x="32" y="93" width="40" height="6" rx="1" fill="#4B5563"/>
  
  <rect x="15" y="110" width="12" height="12" rx="2" fill="#4B5563"/>
  <rect x="32" y="113" width="40" height="6" rx="1" fill="#4B5563"/>
  
  <rect x="15" y="130" width="12" height="12" rx="2" fill="#4B5563"/>
  <rect x="32" y="133" width="40" height="6" rx="1" fill="#4B5563"/>
  
  <!-- Navigation Links in Sidebar -->
  <rect x="15" y="160" width="60" height="6" rx="1" fill="#3B82F6"/>
  <rect x="15" y="175" width="60" height="6" rx="1" fill="#6B7280"/>
  
  <!-- Main Content Area -->
  <rect x="110" y="20" width="170" height="12" rx="2" fill="#111827"/>
  <rect x="110" y="40" width="120" height="8" rx="1" fill="#4B5563"/>
  
  <!-- Professional Summary -->
  <rect x="110" y="65" width="170" height="4" rx="1" fill="#6B7280"/>
  <rect x="110" y="75" width="150" height="4" rx="1" fill="#6B7280"/>
  <rect x="110" y="85" width="160" height="4" rx="1" fill="#6B7280"/>
  
  <!-- Experience Section -->
  <rect x="110" y="105" width="80" height="8" rx="1" fill="#111827"/>
  <rect x="110" y="120" width="170" height="4" rx="1" fill="#6B7280"/>
  <rect x="110" y="130" width="150" height="4" rx="1" fill="#6B7280"/>
  
  <!-- Skills/Tags -->
  <rect x="110" y="150" width="40" height="20" rx="10" fill="#EFF6FF"/>
  <rect x="160" y="150" width="40" height="20" rx="10" fill="#EFF6FF"/>
  <rect x="210" y="150" width="40" height="20" rx="10" fill="#EFF6FF"/>
</svg>